<?xml version="1.0" encoding="UTF-8"?>
<svg width="26px" height="26px" viewBox="0 0 26 26" version="1.1" xmlns="http://www.w3.org/2000/svg" xmlns:xlink="http://www.w3.org/1999/xlink">
    <!-- Generator: Sketch 47.1 (45422) - http://www.bohemiancoding.com/sketch -->
    <title>Fill 1</title>
    <desc>Created with Sketch.</desc>
    <defs></defs>
    <g id="Page-1" stroke="none" stroke-width="1" fill="none" fill-rule="evenodd">
        <g id="Desktop-HD" transform="translate(-657.000000, -964.000000)" fill="#FFFFFF">
            <g id="Group-2" transform="translate(516.000000, 916.000000)">
                <path d="M160.13086,69.4244167 C159.715288,67.046468 159.090226,64.8164337 158.370368,62.7859713 C160.921664,62.3858539 163.166362,62.3958325 164.335379,62.4425615 C164.016733,64.6774634 162.990276,66.740843 161.365529,68.3655292 C160.977824,68.7532343 160.564868,69.1063185 160.13086,69.4244167 Z M155.961266,63.2770523 C156.773427,65.5101288 157.468339,68.0072732 157.869004,70.684154 C156.636221,71.1811977 155.307242,71.4421016 153.937984,71.4421016 C151.394658,71.4421016 148.989268,70.5443319 147.083842,68.8986541 C148.932134,66.191655 151.91172,64.3058823 155.961266,63.2770523 Z M143.434717,60.8633874 C143.883572,60.8873604 144.454846,60.9069525 145.120796,60.9069525 C146.527779,60.9069525 148.357574,60.8193355 150.347818,60.4996553 C151.78358,60.2689915 153.136653,59.9434701 154.396086,59.5265594 C154.618719,59.9982307 154.840682,60.4898592 155.05942,60.999863 C153.446172,61.4338104 151.965081,62.0014953 150.63671,62.6971375 C148.481272,63.8258144 146.725525,65.2923033 145.403665,67.0648432 C144.124579,65.2910864 143.433805,63.1677136 143.433805,60.9379835 C143.433805,60.9130979 143.434535,60.8882122 143.434717,60.8633874 Z M149.48047,51.4207124 C150.245476,52.4141914 151.505396,54.1668349 152.825552,56.4959251 C152.976387,56.7621833 153.130812,57.0418274 153.287123,57.3315719 C152.272835,57.6452284 151.183586,57.8976748 150.019376,58.0872074 C147.407538,58.5125147 145.053684,58.4996764 143.731763,58.4391355 C144.181165,56.5887747 145.129619,54.891196 146.510438,53.510377 C147.386729,52.6339639 148.390795,51.9318722 149.48047,51.4207124 Z M155.580619,56.4594788 C155.352389,56.0294864 155.127506,55.6203639 154.909132,55.2364312 C153.792381,53.2723509 152.726801,51.7093007 151.929669,50.6249191 C152.584606,50.4987872 153.256214,50.4338046 153.937984,50.4338046 C156.339358,50.4338046 158.617155,51.2347697 160.467881,52.7092293 C159.242643,54.2699674 157.60956,55.5230117 155.580619,56.4594788 Z M157.476066,60.4672857 C157.209321,59.8278036 156.936857,59.2144848 156.663054,58.6292156 C156.834089,58.5494477 157.003725,58.4682803 157.170137,58.3844357 C159.198348,57.3622378 160.882662,56.0400126 162.195335,54.4438019 C163.460913,56.0464622 164.222998,57.966369 164.40097,60.0076009 C163.027635,59.9524143 160.429001,59.9510149 157.476066,60.4672857 Z M141,60.9379835 C141,68.0833904 146.792516,73.8759062 153.937984,73.8759062 C161.083451,73.8759062 166.875967,68.0833904 166.875967,60.9379835 C166.875967,53.7924549 161.08339,48 153.937984,48 C146.792516,48 141,53.7924549 141,60.9379835 Z" id="Fill-1"></path>
            </g>
        </g>
    </g>
</svg>