<?xml version="1.0" encoding="UTF-8"?>
<svg width="25px" height="25px" viewBox="0 0 25 25" version="1.1" xmlns="http://www.w3.org/2000/svg" xmlns:xlink="http://www.w3.org/1999/xlink">
    <!-- Generator: Sketch 47.1 (45422) - http://www.bohemiancoding.com/sketch -->
    <title>Page 1</title>
    <desc>Created with Sketch.</desc>
    <defs>
        <polygon id="path-1" points="3.03398058e-05 24.9394673 24.9845267 24.9394673 24.9845267 0.0154358354 3.03398058e-05 0.0154358354"></polygon>
    </defs>
    <g id="Page-1" stroke="none" stroke-width="1" fill="none" fill-rule="evenodd">
        <g id="Desktop-HD" transform="translate(-697.000000, -964.000000)">
            <g id="Group-2" transform="translate(516.000000, 916.000000)">
                <g id="Page-1" transform="translate(181.000000, 48.000000)">
                    <g id="Group-3" transform="translate(0.000000, 0.045097)">
                        <mask id="mask-2" fill="white">
                            <use xlink:href="#path-1"></use>
                        </mask>
                        <g id="Clip-2"></g>
                        <path d="M22.4710862,17.5144794 C22.4710862,20.230339 20.2640473,22.4320944 17.5415352,22.4320944 L7.44305218,22.4320944 C4.72054005,22.4320944 2.51344053,20.230339 2.51344053,17.5144794 L2.51344053,7.44038741 C2.51344053,4.72446731 4.72054005,2.5227724 7.44305218,2.5227724 L17.5415352,2.5227724 C20.2640473,2.5227724 22.4710862,4.72446731 22.4710862,7.44038741 L22.4710862,17.5144794 Z M17.5415352,0.0153874092 L7.44305218,0.0153874092 C3.33892597,0.0153874092 3.03398058e-05,3.34619855 3.03398058e-05,7.44038741 L3.03398058e-05,17.5144794 C3.03398058e-05,21.6086077 3.33892597,24.9394794 7.44305218,24.9394794 L17.5415352,24.9394794 C21.6456007,24.9394794 24.984557,21.6086077 24.984557,17.5144794 L24.984557,7.44038741 C24.9844964,3.34619855 21.6456007,0.0153874092 17.5415352,0.0153874092 L17.5415352,0.0153874092 Z" id="Fill-1" fill="#FFFFFF" mask="url(#mask-2)"></path>
                    </g>
                    <path d="M12.4922816,16.4614165 C10.3115777,16.4614165 8.54385922,14.6979177 8.54385922,12.5225545 C8.54385922,10.3471308 10.3116383,8.58363196 12.4922816,8.58363196 C14.6729854,8.58363196 16.4407039,10.3471308 16.4407039,12.5225545 C16.4407039,14.6978571 14.6729248,16.4614165 12.4922816,16.4614165 M12.4922816,6.07630751 C8.92917476,6.07630751 6.03038835,8.96807506 6.03038835,12.5224939 C6.03038835,16.0769128 8.92917476,18.9687409 12.4922816,18.9687409 C16.0553883,18.9687409 18.9541748,16.0769128 18.9541748,12.5224939 C18.9541748,8.96801453 16.0553883,6.07630751 12.4922816,6.07630751" id="Fill-4" fill="#FFFFFF"></path>
                    <path d="M18.9666869,4.58004843 C19.8218447,4.58004843 20.5151092,5.27163438 20.5151092,6.12472155 C20.5151092,6.97774818 19.8218447,7.66933414 18.9666869,7.66933414 C18.1115291,7.66933414 17.4182646,6.97774818 17.4182646,6.12472155 C17.4182646,5.27163438 18.1115291,4.58004843 18.9666869,4.58004843" id="Fill-6" fill="#FFFFFF"></path>
                </g>
            </g>
        </g>
    </g>
</svg>