<?xml version="1.0" encoding="UTF-8"?>
<svg width="25px" height="21px" viewBox="0 0 25 21" version="1.1" xmlns="http://www.w3.org/2000/svg" xmlns:xlink="http://www.w3.org/1999/xlink">
    <!-- Generator: Sketch 47.1 (45422) - http://www.bohemiancoding.com/sketch -->
    <title>Fill 1</title>
    <desc>Created with Sketch.</desc>
    <defs></defs>
    <g id="Page-1" stroke="none" stroke-width="1" fill="none" fill-rule="evenodd">
        <g id="Desktop-HD" transform="translate(-738.000000, -967.000000)" fill="#FFFFFF">
            <g id="Group-2" transform="translate(516.000000, 916.000000)">
                <path d="M244.838375,53.9951616 C245.489113,53.3767319 245.97843,52.6032079 246.254484,51.7398158 C246.333278,51.4933322 246.065621,51.2801918 245.842988,51.4121648 C245.021397,51.8995342 244.136344,52.2651525 243.21235,52.4989802 C243.158745,52.5125487 243.103437,52.5194242 243.048007,52.5194242 C242.879649,52.5194242 242.716097,52.4569363 242.58741,52.343521 C241.604335,51.4771474 240.340035,51 239.027484,51 C238.459495,51 237.885969,51.0885296 237.322908,51.2631551 C235.578357,51.8042507 234.23228,53.2432985 233.810015,55.018759 C233.651514,55.6847088 233.608618,56.351267 233.682362,56.9998759 C233.69088,57.0744112 233.655651,57.1264338 233.633868,57.1508327 C233.595719,57.1936068 233.541688,57.2181274 233.485528,57.2181274 C229.647662,56.8624268 226.204072,55.0226531 223.769902,52.0368616 C223.645778,51.8845663 223.407813,51.9032457 223.308878,52.0729428 C222.832218,52.8907011 222.580258,53.8260122 222.580258,54.7777515 C222.580258,56.2363306 223.166257,57.6108826 224.184196,58.6129408 C223.75609,58.5114511 223.341856,58.351611 222.957011,58.1378621 C222.770764,58.0344254 222.541682,58.167372 222.539127,58.3803299 C222.512416,60.5471461 223.781097,62.4752061 225.681473,63.3434051 C225.643201,63.3443177 225.60493,63.3447436 225.566597,63.3447436 C225.265353,63.3447436 224.960337,63.3156597 224.660188,63.2582827 C224.450515,63.2182467 224.274308,63.4171493 224.339412,63.6204329 C224.95626,65.5462416 226.614411,66.9657581 228.598692,67.2880547 C226.951919,68.3935496 225.034081,68.9766892 223.038118,68.9766892 L222.415794,68.9763241 C222.224132,68.9763241 222.061979,69.1013 222.01306,69.2869993 C221.964932,69.4698997 222.053583,69.6628395 222.217135,69.7579404 C224.466274,71.0669014 227.031808,71.7587103 229.637501,71.7587103 C231.918219,71.7587103 234.051692,71.3060835 235.978657,70.4134857 C237.745234,69.5951798 239.306276,68.4254324 240.618401,66.936735 C241.840779,65.5499531 242.796656,63.9490573 243.459442,62.1785862 C244.091136,60.4909252 244.425115,58.6901532 244.425115,56.9709136 L244.425115,56.8890161 C244.425054,56.6129618 244.549847,56.353214 244.767734,56.1763981 C245.594314,55.5052765 246.314112,54.7152636 246.907048,53.8283243 C247.063541,53.5941315 246.816632,53.3006146 246.559014,53.4148818 C246.004593,53.6607569 245.428998,53.8547311 244.838375,53.9951616 Z" id="Fill-1"></path>
            </g>
        </g>
    </g>
</svg>