<?xml version="1.0" encoding="UTF-8"?>
<svg width="29px" height="20px" viewBox="0 0 29 20" version="1.1" xmlns="http://www.w3.org/2000/svg" xmlns:xlink="http://www.w3.org/1999/xlink">
    <!-- Generator: Sketch 47.1 (45422) - http://www.bohemiancoding.com/sketch -->
    <title>Fill 1</title>
    <desc>Created with Sketch.</desc>
    <defs></defs>
    <g id="Page-1" stroke="none" stroke-width="1" fill="none" fill-rule="evenodd">
        <g id="Desktop-HD" transform="translate(-616.000000, -967.000000)" fill="#FFFFFF">
            <g id="Group-2" transform="translate(516.000000, 916.000000)">
                <path d="M110.614126,64.9813555 C110.409808,65.0788294 110.173729,64.9298197 110.173729,64.7034151 L110.173729,57.1583774 C110.173729,56.928748 110.416014,56.7799208 110.620819,56.8837226 L118.290893,60.7705694 C118.518941,60.8861143 118.515047,61.2131567 118.284322,61.3231647 L110.614126,64.9813555 Z M105.825494,51 C102.608126,51 100,53.6081867 100,56.8255547 L100,65.0230953 C100,68.2404633 102.608126,70.84865 105.825494,70.84865 L122.224104,70.84865 C125.441472,70.84865 128.049659,68.2404633 128.049659,65.0230953 L128.049659,56.8255547 C128.049659,53.6081867 125.441472,51 122.224104,51 L105.825494,51 Z" id="Fill-1"></path>
            </g>
        </g>
    </g>
</svg>